<svg version="1.1" xmlns="http://www.w3.org/2000/svg" viewBox="0 0 911.6363264241065 138.3467788467451" width="911.6363264241065" height="138.3467788467451">
  <!-- svg-source:excalidraw -->
  
  <defs>
    <style class="style-fonts">
      @font-face {
        font-family: "Virgil";
        src: url("https://excalidraw.com/Virgil.woff2");
      }
      @font-face {
        font-family: "Cascadia";
        src: url("https://excalidraw.com/Cascadia.woff2");
      }
    </style>
  </defs>
  <rect x="0" y="0" width="911.6363264241065" height="138.3467788467451" fill="#ffffff"></rect><g transform="translate(182.86550284276785 25.133786739650986) rotate(0 13.283333778381348 12.5)"><text x="0" y="0" font-family="Virgil, Segoe UI Emoji" font-size="20px" fill="#000000" text-anchor="start" style="white-space: pre;" direction="ltr" dominant-baseline="text-before-edge">Pa</text></g><g transform="translate(10 26.633644272131278) rotate(0 11.699999809265137 12.5)"><text x="0" y="0" font-family="Virgil, Segoe UI Emoji" font-size="20px" fill="#000000" text-anchor="start" style="white-space: pre;" direction="ltr" dominant-baseline="text-before-edge">Pb</text></g><g stroke-linecap="round"><g transform="translate(45.61445042314887 38.131952835264656) rotate(0 62.385051900540816 -0.04106723749760022)"><path d="M0 0 C39.98 -0.03, 79.97 -0.05, 124.77 -0.08 M0 0 C49.09 -0.03, 98.18 -0.06, 124.77 -0.08" stroke="#000000" stroke-width="1" fill="none"></path></g></g><mask></mask><g transform="translate(86.46631196650242 10) rotate(0 20.03333282470703 10)"><text x="0" y="0" font-family="Virgil, Segoe UI Emoji" font-size="16px" fill="#000000" text-anchor="start" style="white-space: pre;" direction="ltr" dominant-baseline="text-before-edge">Xreal</text></g><g transform="translate(184.52962932523957 103.34677884674511) rotate(0 11.699999809265137 12.5)"><text x="0" y="0" font-family="Virgil, Segoe UI Emoji" font-size="20px" fill="#000000" text-anchor="start" style="white-space: pre;" direction="ltr" dominant-baseline="text-before-edge">Pb</text></g><g transform="translate(356.1309595692366 100.34706378178498) rotate(0 13.283333778381348 12.5)"><text x="0" y="0" font-family="Virgil, Segoe UI Emoji" font-size="20px" fill="#000000" text-anchor="start" style="white-space: pre;" direction="ltr" dominant-baseline="text-before-edge">Pa</text></g><g transform="translate(263.72073976772316 86.71503971275979) rotate(0 19.383333206176758 10)"><text x="0" y="0" font-family="Virgil, Segoe UI Emoji" font-size="16px" fill="#000000" text-anchor="start" style="white-space: pre;" direction="ltr" dominant-baseline="text-before-edge">Yreal</text></g><g transform="translate(188.28407496547226 64.24456935402759) rotate(0 6.616666793823242 12.5)"><text x="0" y="0" font-family="Virgil, Segoe UI Emoji" font-size="20px" fill="#000000" text-anchor="start" style="white-space: pre;" direction="ltr" dominant-baseline="text-before-edge">P</text></g><g transform="translate(875.0696588673438 61.187746096547926) rotate(0 13.283333778381348 12.5)"><text x="0" y="0" font-family="Virgil, Segoe UI Emoji" font-size="20px" fill="#000000" text-anchor="start" style="white-space: pre;" direction="ltr" dominant-baseline="text-before-edge">Pa</text></g><g transform="translate(782.6594390658306 47.555722027522734) rotate(0 19.383333206176758 10)"><text x="0" y="0" font-family="Virgil, Segoe UI Emoji" font-size="16px" fill="#000000" text-anchor="start" style="white-space: pre;" direction="ltr" dominant-baseline="text-before-edge">Yreal</text></g><g transform="translate(543.6694342153646 62.68855619810165) rotate(0 11.699999809265137 12.5)"><text x="0" y="0" font-family="Virgil, Segoe UI Emoji" font-size="20px" fill="#000000" text-anchor="start" style="white-space: pre;" direction="ltr" dominant-baseline="text-before-edge">Pb</text></g><g transform="translate(624.6353187793075 48.30469822469058) rotate(0 20.03333282470703 10)"><text x="0" y="0" font-family="Virgil, Segoe UI Emoji" font-size="16px" fill="#000000" text-anchor="start" style="white-space: pre;" direction="ltr" dominant-baseline="text-before-edge">Xreal</text></g><g transform="translate(715.4612722009422 61.110374466918074) rotate(0 6.616666793823242 12.5)"><text x="0" y="0" font-family="Virgil, Segoe UI Emoji" font-size="20px" fill="#000000" text-anchor="start" style="white-space: pre;" direction="ltr" dominant-baseline="text-before-edge">P</text></g><g stroke-linecap="round"><g transform="translate(412.28942436519577 72.3468695097722) rotate(0 35.24739369997076 0)"><path d="M0 0 C24.66 0, 49.32 0, 70.49 0 M0 0 C15.98 0, 31.96 0, 70.49 0" stroke="#000000" stroke-width="2" fill="none"></path></g><g transform="translate(412.28942436519577 72.3468695097722) rotate(0 35.24739369997076 0)"><path d="M70.49 0 L56.9 6.34 L56.9 -6.34 L70.49 0" stroke="none" stroke-width="0" fill="#000000" fill-rule="evenodd"></path><path d="M70.49 0 C65.74 2.22, 60.98 4.44, 56.9 6.34 M70.49 0 C67.41 1.44, 64.33 2.87, 56.9 6.34 M56.9 6.34 C56.9 2.93, 56.9 -0.48, 56.9 -6.34 M56.9 6.34 C56.9 3.64, 56.9 0.95, 56.9 -6.34 M56.9 -6.34 C62.2 -3.87, 67.5 -1.4, 70.49 0 M56.9 -6.34 C61.53 -4.18, 66.17 -2.02, 70.49 0 M70.49 0 C70.49 0, 70.49 0, 70.49 0 M70.49 0 C70.49 0, 70.49 0, 70.49 0" stroke="#000000" stroke-width="2" fill="none"></path></g></g><mask></mask><g stroke-linecap="round"><g transform="translate(220.99184800609652 113.91808499733907) rotate(0 62.385051900540816 -0.04106723749760022)"><path d="M0 0 C32.84 -0.02, 65.68 -0.04, 124.77 -0.08 M0 0 C29.63 -0.02, 59.25 -0.04, 124.77 -0.08" stroke="#000000" stroke-width="1" fill="none"></path></g></g><mask></mask><g stroke-linecap="round"><g transform="translate(580.2077270350806 75.67171791909641) rotate(0 62.385051900540816 -0.04106723749760022)"><path d="M0 0 C37.23 -0.02, 74.46 -0.05, 124.77 -0.08 M0 0 C26.36 -0.02, 52.73 -0.03, 124.77 -0.08" stroke="#000000" stroke-width="1" fill="none"></path></g></g><mask></mask><g stroke-linecap="round"><g transform="translate(736.942839179251 74.17186038661612) rotate(0 62.38505190054076 -0.04106723749760022)"><path d="M0 0 C45.71 -0.03, 91.42 -0.06, 124.77 -0.08 M0 0 C39.51 -0.03, 79.03 -0.05, 124.77 -0.08" stroke="#000000" stroke-width="1" fill="none"></path></g></g><mask></mask></svg>