<svg version="1.1" xmlns="http://www.w3.org/2000/svg" viewBox="0 0 498.35668543847214 85.79777075460288" width="498.35668543847214" height="85.79777075460288">
  <!-- svg-source:excalidraw -->
  
  <defs>
    <style class="style-fonts">
      @font-face {
        font-family: "Virgil";
        src: url("https://excalidraw.com/Virgil.woff2");
      }
      @font-face {
        font-family: "Cascadia";
        src: url("https://excalidraw.com/Cascadia.woff2");
      }
    </style>
  </defs>
  <rect x="0" y="0" width="498.35668543847214" height="85.79777075460288" fill="#ffffff"></rect><g transform="translate(325.3519684283774 26.633644272131278) rotate(0 13.283333778381348 12.5)"><text x="0" y="0" font-family="Virgil, Segoe UI Emoji" font-size="20px" fill="#000000" text-anchor="start" style="white-space: pre;" direction="ltr" dominant-baseline="text-before-edge">Pa</text></g><g transform="translate(10 26.633644272131278) rotate(0 11.699999809265137 12.5)"><text x="0" y="0" font-family="Virgil, Segoe UI Emoji" font-size="20px" fill="#000000" text-anchor="start" style="white-space: pre;" direction="ltr" dominant-baseline="text-before-edge">Pb</text></g><g transform="translate(475.12335185082566 25.79777075460288) rotate(0 6.616666793823242 25)"><text x="0" y="0" font-family="Virgil, Segoe UI Emoji" font-size="20px" fill="#000000" text-anchor="start" style="white-space: pre;" direction="ltr" dominant-baseline="text-before-edge">P</text><text x="0" y="25" font-family="Virgil, Segoe UI Emoji" font-size="20px" fill="#000000" text-anchor="start" style="white-space: pre;" direction="ltr" dominant-baseline="text-before-edge"></text></g><g stroke-linecap="round"><g transform="translate(44.114592890668746 40.38173913398532) rotate(0 134.37821345958565 -0.41603162061778676)"><path d="M0 0 C86.68 -0.27, 173.35 -0.54, 268.76 -0.83 M0 0 C54.11 -0.17, 108.22 -0.34, 268.76 -0.83" stroke="#000000" stroke-width="1" fill="none"></path></g></g><mask></mask><g stroke-linecap="round"><g transform="translate(361.13068780151775 39.13364427213128) rotate(0 52.836015818474834 0)"><path d="M0 0 C25.72 0, 51.44 0, 105.67 0" stroke="#000000" stroke-width="1.5" fill="none" stroke-dasharray="1.5 7"></path></g></g><mask></mask><g transform="translate(158.4594735255473 10) rotate(0 20.03333282470703 10)"><text x="0" y="0" font-family="Virgil, Segoe UI Emoji" font-size="16px" fill="#000000" text-anchor="start" style="white-space: pre;" direction="ltr" dominant-baseline="text-before-edge">Xreal</text></g></svg>