<svg version="1.1" xmlns="http://www.w3.org/2000/svg" viewBox="0 0 721.4226009850921 133.37600587730503" width="721.4226009850921" height="133.37600587730503">
  <!-- svg-source:excalidraw -->
  
  <defs>
    <style class="style-fonts">
      @font-face {
        font-family: "Virgil";
        src: url("https://excalidraw.com/Virgil.woff2");
      }
      @font-face {
        font-family: "Cascadia";
        src: url("https://excalidraw.com/Cascadia.woff2");
      }
    </style>
  </defs>
  <rect x="0" y="0" width="721.4226009850921" height="133.37600587730503" fill="#ffffff"></rect><g transform="translate(341.4002246519792 70.85309747833708) rotate(0 13.283333778381348 12.5)"><text x="0" y="0" font-family="Virgil, Segoe UI Emoji" font-size="20px" fill="#000000" text-anchor="start" style="white-space: pre;" direction="ltr" dominant-baseline="text-before-edge">Pa</text></g><g transform="translate(248.990004850466 57.22107340931234) rotate(0 19.383333206176758 10)"><text x="0" y="0" font-family="Virgil, Segoe UI Emoji" font-size="16px" fill="#000000" text-anchor="start" style="white-space: pre;" direction="ltr" dominant-baseline="text-before-edge">Yreal</text></g><g transform="translate(10 72.3539075798908) rotate(0 11.699999809265137 12.5)"><text x="0" y="0" font-family="Virgil, Segoe UI Emoji" font-size="20px" fill="#000000" text-anchor="start" style="white-space: pre;" direction="ltr" dominant-baseline="text-before-edge">Pb</text></g><g transform="translate(90.96588456394284 57.97004960647973) rotate(0 20.03333282470703 10)"><text x="0" y="0" font-family="Virgil, Segoe UI Emoji" font-size="16px" fill="#000000" text-anchor="start" style="white-space: pre;" direction="ltr" dominant-baseline="text-before-edge">Xreal</text></g><g transform="translate(181.79183798557756 70.77572584870722) rotate(0 6.616666793823242 12.5)"><text x="0" y="0" font-family="Virgil, Segoe UI Emoji" font-size="20px" fill="#000000" text-anchor="start" style="white-space: pre;" direction="ltr" dominant-baseline="text-before-edge">P</text></g><g stroke-linecap="round"><g transform="translate(46.538292819715934 85.33706930088556) rotate(0 62.385051900540816 -0.04106723749760022)"><path d="M0 0 C47.56 -0.03, 95.11 -0.06, 124.77 -0.08 M0 0 C35.29 -0.02, 70.58 -0.05, 124.77 -0.08" stroke="#000000" stroke-width="1" fill="none"></path></g></g><mask></mask><g stroke-linecap="round"><g transform="translate(203.27340496388638 83.83721176840572) rotate(0 62.385051900540816 -0.04106723749760022)"><path d="M0 0 C43.77 -0.03, 87.53 -0.06, 124.77 -0.08 M0 0 C49.86 -0.03, 99.72 -0.07, 124.77 -0.08" stroke="#000000" stroke-width="1" fill="none"></path></g></g><mask></mask><g stroke-linecap="round"><g transform="translate(398.2056018994939 72.3296195041944) rotate(0 46.603987309814215 -16.360974268339078)"><path d="M0 0 C23.41 -8.22, 46.82 -16.44, 93.21 -32.72 M0 0 C23.34 -8.19, 46.68 -16.39, 93.21 -32.72" stroke="#000000" stroke-width="2" fill="none"></path></g><g transform="translate(398.2056018994939 72.3296195041944) rotate(0 46.603987309814215 -16.360974268339078)"><path d="M93.21 -32.72 L82.48 -22.24 L78.28 -34.2 L93.21 -32.72" stroke="none" stroke-width="0" fill="#000000" fill-rule="evenodd"></path><path d="M93.21 -32.72 C90.51 -30.09, 87.82 -27.46, 82.48 -22.24 M93.21 -32.72 C90.52 -30.1, 87.84 -27.47, 82.48 -22.24 M82.48 -22.24 C81.56 -24.87, 80.63 -27.5, 78.28 -34.2 M82.48 -22.24 C80.94 -26.64, 79.39 -31.04, 78.28 -34.2 M78.28 -34.2 C81.96 -33.84, 85.64 -33.47, 93.21 -32.72 M78.28 -34.2 C82.98 -33.73, 87.68 -33.27, 93.21 -32.72 M93.21 -32.72 C93.21 -32.72, 93.21 -32.72, 93.21 -32.72 M93.21 -32.72 C93.21 -32.72, 93.21 -32.72, 93.21 -32.72" stroke="#000000" stroke-width="2" fill="none"></path></g></g><mask></mask><g stroke-linecap="round"><g transform="translate(399.19717609757515 86.21165827733057) rotate(0 46.60398730981416 12.89046457505492)"><path d="M0 0 C29.77 8.23, 59.54 16.47, 93.21 25.78 M0 0 C32.7 9.04, 65.39 18.09, 93.21 25.78" stroke="#000000" stroke-width="2" fill="none"></path></g><g transform="translate(399.19717609757515 86.21165827733057) rotate(0 46.60398730981416 12.89046457505492)"><path d="M93.21 25.78 L78.42 28.27 L81.8 16.05 L93.21 25.78" stroke="none" stroke-width="0" fill="#000000" fill-rule="evenodd"></path><path d="M93.21 25.78 C88.48 26.57, 83.76 27.37, 78.42 28.27 M93.21 25.78 C88.02 26.65, 82.83 27.52, 78.42 28.27 M78.42 28.27 C79.38 24.77, 80.35 21.27, 81.8 16.05 M78.42 28.27 C79.46 24.5, 80.5 20.73, 81.8 16.05 M81.8 16.05 C84.72 18.54, 87.64 21.03, 93.21 25.78 M81.8 16.05 C85.22 18.96, 88.64 21.88, 93.21 25.78 M93.21 25.78 C93.21 25.78, 93.21 25.78, 93.21 25.78 M93.21 25.78 C93.21 25.78, 93.21 25.78, 93.21 25.78" stroke="#000000" stroke-width="2" fill="none"></path></g></g><mask></mask><g transform="translate(518.8814687003296 26.367006369573573) rotate(0 11.699999809265137 12.5)"><text x="0" y="0" font-family="Virgil, Segoe UI Emoji" font-size="20px" fill="#000000" text-anchor="start" style="white-space: pre;" direction="ltr" dominant-baseline="text-before-edge">Pb</text></g><g transform="translate(593.8979080757855 10) rotate(0 20.03333282470703 10)"><text x="0" y="0" font-family="Virgil, Segoe UI Emoji" font-size="16px" fill="#000000" text-anchor="start" style="white-space: pre;" direction="ltr" dominant-baseline="text-before-edge">Xreal</text></g><g transform="translate(690.6733066859072 24.788824638389997) rotate(0 6.616666793823242 12.5)"><text x="0" y="0" font-family="Virgil, Segoe UI Emoji" font-size="20px" fill="#000000" text-anchor="start" style="white-space: pre;" direction="ltr" dominant-baseline="text-before-edge">P</text></g><g stroke-linecap="round"><g transform="translate(555.4197615200455 39.35016809056833) rotate(0 62.385051900540816 -0.04106723749760022)"><path d="M0 0 C29 -0.02, 58.01 -0.04, 124.77 -0.08 M0 0 C31.51 -0.02, 63.01 -0.04, 124.77 -0.08" stroke="#000000" stroke-width="1" fill="none"></path></g></g><mask></mask><g transform="translate(684.8559334283294 98.37600587730503) rotate(0 13.283333778381348 12.5)"><text x="0" y="0" font-family="Virgil, Segoe UI Emoji" font-size="20px" fill="#000000" text-anchor="start" style="white-space: pre;" direction="ltr" dominant-baseline="text-before-edge">Pa</text></g><g transform="translate(592.445713626816 84.74398180827939) rotate(0 19.383333206176758 10)"><text x="0" y="0" font-family="Virgil, Segoe UI Emoji" font-size="16px" fill="#000000" text-anchor="start" style="white-space: pre;" direction="ltr" dominant-baseline="text-before-edge">Yreal</text></g><g transform="translate(525.2475467619278 98.29863424767518) rotate(0 6.616666793823242 12.5)"><text x="0" y="0" font-family="Virgil, Segoe UI Emoji" font-size="20px" fill="#000000" text-anchor="start" style="white-space: pre;" direction="ltr" dominant-baseline="text-before-edge">P</text></g><g stroke-linecap="round"><g transform="translate(546.7291137402366 111.36012016737277) rotate(0 62.385051900540816 -0.04106723749760022)"><path d="M0 0 C49.23 -0.03, 98.46 -0.06, 124.77 -0.08 M0 0 C36.77 -0.02, 73.53 -0.05, 124.77 -0.08" stroke="#000000" stroke-width="1" fill="none"></path></g></g><mask></mask></svg>