<svg version="1.1" xmlns="http://www.w3.org/2000/svg" viewBox="0 0 488 399.7295373665479" width="488" height="399.7295373665479">
  <!-- svg-source:excalidraw -->
  
  <defs>
    <style class="style-fonts">
      @font-face {
        font-family: "Virgil";
        src: url("https://excalidraw.com/Virgil.woff2");
      }
      @font-face {
        font-family: "Cascadia";
        src: url("https://excalidraw.com/Cascadia.woff2");
      }
    </style>
  </defs>
  <rect x="0" y="0" width="488" height="399.7295373665479" fill="#ffffff"></rect><g stroke-linecap="round"><g transform="translate(123.25266903914587 10.832740213523124) rotate(0 174.04270462633446 169.4626334519573)"><path d="M0 0 C0.76 15.47, 0.34 59.1, 4.58 92.84 C8.82 126.57, 9.41 169.16, 25.44 202.42 C41.47 235.68, 63.94 271.17, 100.74 292.38 C137.54 313.6, 205.02 321.95, 246.25 329.71 C287.47 337.47, 331.11 337.39, 348.09 338.93 M0 0 C0.76 15.47, 0.34 59.1, 4.58 92.84 C8.82 126.57, 9.41 169.16, 25.44 202.42 C41.47 235.68, 63.94 271.17, 100.74 292.38 C137.54 313.6, 205.02 321.95, 246.25 329.71 C287.47 337.47, 331.11 337.39, 348.09 338.93" stroke="#000000" stroke-width="2" fill="none"></path></g></g><mask></mask><g stroke-linecap="round"><g transform="translate(105.76512455516013 10) rotate(0 186.11743772241994 175.2918149466192)"><path d="M0 0 C0.29 121.93, 0.58 243.86, 0.83 350.58 M0 0 C0.18 74.12, 0.35 148.23, 0.83 350.58 M0.83 350.58 C141.82 350.58, 282.82 350.58, 372.23 350.58 M0.83 350.58 C126.23 350.58, 251.62 350.58, 372.23 350.58" stroke="#000000" stroke-width="2" fill="none"></path></g></g><mask></mask><g transform="translate(249.82918149466195 368.91103202846966) rotate(0 43.06654846625821 10.40925266903912)"><text x="0" y="0" font-family="Virgil, Segoe UI Emoji" font-size="16.65480427046263px" fill="#000000" text-anchor="start" style="white-space: pre;" direction="ltr" dominant-baseline="text-before-edge">x reserves</text></g><g transform="translate(10 170.71886120996442) rotate(0 42.29626440407969 10.409252669039148)"><text x="0" y="0" font-family="Virgil, Segoe UI Emoji" font-size="16.654804270462634px" fill="#000000" text-anchor="start" style="white-space: pre;" direction="ltr" dominant-baseline="text-before-edge">y reserves</text></g><g transform="translate(179.0462633451957 263.98576512455514) rotate(0 0.000041637010667727736 0.000041637010667727736)" stroke="none"><path fill="#000000" d="M 3.14,-3.14 Q 3.14,-3.14 3.55,-2.55 3.97,-1.97 4.18,-1.28 4.40,-0.59 4.38,0.11 4.36,0.83 4.11,1.51 3.86,2.18 3.41,2.74 2.96,3.30 2.36,3.69 1.75,4.07 1.05,4.25 0.36,4.42 -0.35,4.36 -1.07,4.30 -1.73,4.02 -2.39,3.74 -2.92,3.26 -3.46,2.78 -3.81,2.15 -4.16,1.53 -4.30,0.82 -4.43,0.11 -4.34,-0.59 -4.24,-1.30 -3.92,-1.94 -3.60,-2.59 -3.09,-3.09 -2.59,-3.60 -1.94,-3.92 -1.30,-4.24 -0.59,-4.34 0.12,-4.43 0.82,-4.30 1.53,-4.16 2.15,-3.81 2.78,-3.46 3.26,-2.92 3.74,-2.39 4.02,-1.73 4.31,-1.07 4.36,-0.35 4.42,0.36 4.25,1.05 4.07,1.75 3.69,2.36 3.30,2.96 2.74,3.41 2.18,3.86 1.51,4.11 0.83,4.36 0.11,4.38 -0.60,4.40 -1.28,4.18 -1.97,3.97 -2.55,3.55 -3.14,3.13 -3.14,3.14 -3.14,3.14 -3.47,2.71 -3.80,2.29 -4.02,1.80 -4.24,1.32 -4.33,0.79 -4.43,0.26 -4.40,-0.26 -4.36,-0.80 -4.20,-1.31 -4.04,-1.82 -3.77,-2.28 -3.49,-2.73 -3.11,-3.11 -2.73,-3.49 -2.28,-3.77 -1.82,-4.05 -1.31,-4.20 -0.80,-4.36 -0.26,-4.40 0.26,-4.43 0.79,-4.33 1.32,-4.24 1.80,-4.02 2.29,-3.80 2.71,-3.47 3.14,-3.14 3.14,-3.14 L 3.14,-3.14 Z"></path></g><g transform="translate(341.43060498220643 335.6014234875445) rotate(0 0.000041637010667727736 0.000041637010667727736)" stroke="none"><path fill="#000000" d="M 3.14,-3.14 Q 3.14,-3.14 3.55,-2.55 3.97,-1.97 4.18,-1.28 4.40,-0.59 4.38,0.11 4.36,0.83 4.11,1.51 3.86,2.18 3.41,2.74 2.96,3.30 2.36,3.69 1.75,4.07 1.05,4.25 0.36,4.42 -0.35,4.36 -1.07,4.30 -1.73,4.02 -2.39,3.74 -2.92,3.26 -3.46,2.78 -3.81,2.15 -4.16,1.53 -4.30,0.82 -4.43,0.11 -4.34,-0.59 -4.24,-1.30 -3.92,-1.94 -3.60,-2.59 -3.09,-3.09 -2.59,-3.60 -1.94,-3.92 -1.30,-4.24 -0.59,-4.34 0.12,-4.43 0.82,-4.30 1.53,-4.16 2.15,-3.81 2.78,-3.46 3.26,-2.92 3.74,-2.39 4.02,-1.73 4.31,-1.07 4.36,-0.35 4.42,0.36 4.25,1.05 4.07,1.75 3.69,2.36 3.30,2.96 2.74,3.41 2.18,3.86 1.51,4.11 0.83,4.36 0.11,4.38 -0.60,4.40 -1.28,4.18 -1.97,3.97 -2.55,3.55 -3.14,3.13 -3.14,3.14 -3.14,3.14 -3.47,2.71 -3.80,2.29 -4.02,1.80 -4.24,1.32 -4.33,0.79 -4.43,0.26 -4.40,-0.26 -4.36,-0.80 -4.20,-1.31 -4.04,-1.82 -3.77,-2.28 -3.49,-2.73 -3.11,-3.11 -2.73,-3.49 -2.28,-3.77 -1.82,-4.05 -1.31,-4.20 -0.80,-4.36 -0.26,-4.40 0.26,-4.43 0.79,-4.33 1.32,-4.24 1.80,-4.02 2.29,-3.80 2.71,-3.47 3.14,-3.14 3.14,-3.14 L 3.14,-3.14 Z"></path></g><g transform="translate(132.41281138790032 146.56939501779357) rotate(0 0.000041637010667727736 0.000041637010667727736)" stroke="none"><path fill="#000000" d="M 3.14,-3.14 Q 3.14,-3.14 3.55,-2.55 3.97,-1.97 4.18,-1.28 4.40,-0.59 4.38,0.11 4.36,0.83 4.11,1.51 3.86,2.18 3.41,2.74 2.96,3.30 2.36,3.69 1.75,4.07 1.05,4.25 0.36,4.42 -0.35,4.36 -1.07,4.30 -1.73,4.02 -2.39,3.74 -2.92,3.26 -3.46,2.78 -3.81,2.15 -4.16,1.53 -4.30,0.82 -4.43,0.11 -4.34,-0.59 -4.24,-1.30 -3.92,-1.94 -3.60,-2.59 -3.09,-3.09 -2.59,-3.60 -1.94,-3.92 -1.30,-4.24 -0.59,-4.34 0.12,-4.43 0.82,-4.30 1.53,-4.16 2.15,-3.81 2.78,-3.46 3.26,-2.92 3.74,-2.39 4.02,-1.73 4.31,-1.07 4.36,-0.35 4.42,0.36 4.25,1.05 4.07,1.75 3.69,2.36 3.30,2.96 2.74,3.41 2.18,3.86 1.51,4.11 0.83,4.36 0.11,4.38 -0.60,4.40 -1.28,4.18 -1.97,3.97 -2.55,3.55 -3.14,3.13 -3.14,3.14 -3.14,3.14 -3.47,2.71 -3.80,2.29 -4.02,1.80 -4.24,1.32 -4.33,0.79 -4.43,0.26 -4.40,-0.26 -4.36,-0.80 -4.20,-1.31 -4.04,-1.82 -3.77,-2.28 -3.49,-2.73 -3.11,-3.11 -2.73,-3.49 -2.28,-3.77 -1.82,-4.05 -1.31,-4.20 -0.80,-4.36 -0.26,-4.40 0.26,-4.43 0.79,-4.33 1.32,-4.24 1.80,-4.02 2.29,-3.80 2.71,-3.47 3.14,-3.14 3.14,-3.14 L 3.14,-3.14 Z"></path></g><g transform="translate(147.40213523131672 137.8256227758007) rotate(0 28.576867480294993 8.327402135231324)"><text x="0" y="0" font-family="Virgil, Segoe UI Emoji" font-size="13.323843416370106px" fill="#000000" text-anchor="start" style="white-space: pre;" direction="ltr" dominant-baseline="text-before-edge">Pb = 1.01</text></g><g transform="translate(191.27366632753422 247.3309608540925) rotate(0 16.980960642315722 8.327402135231324)"><text x="0" y="0" font-family="Virgil, Segoe UI Emoji" font-size="13.323843416370106px" fill="#000000" text-anchor="start" style="white-space: pre;" direction="ltr" dominant-baseline="text-before-edge">P = 1</text></g><g transform="translate(343.6651254022672 306.4555160142349) rotate(0 34.14234875444839 8.327402135231324)"><text x="0" y="0" font-family="Virgil, Segoe UI Emoji" font-size="13.323843416370106px" fill="#000000" text-anchor="start" style="white-space: pre;" direction="ltr" dominant-baseline="text-before-edge">Pa = 0.99</text></g></svg>