<svg version="1.1" xmlns="http://www.w3.org/2000/svg" viewBox="0 0 488 399.72953736654796" width="488" height="399.72953736654796">
  <!-- svg-source:excalidraw -->
  
  <defs>
    <style class="style-fonts">
      @font-face {
        font-family: "Virgil";
        src: url("https://excalidraw.com/Virgil.woff2");
      }
      @font-face {
        font-family: "Cascadia";
        src: url("https://excalidraw.com/Cascadia.woff2");
      }
    </style>
  </defs>
  <rect x="0" y="0" width="488" height="399.72953736654796" fill="#ffffff"></rect><g stroke-linecap="round"><g transform="translate(105.76512455516013 10) rotate(0 186.11743772241994 175.2918149466192)"><path d="M0 0 C0.29 120.01, 0.57 240.02, 0.83 350.58 M0 0 C0.25 103.36, 0.49 206.72, 0.83 350.58 M0.83 350.58 C92.73 350.58, 184.62 350.58, 372.23 350.58 M0.83 350.58 C108.02 350.58, 215.21 350.58, 372.23 350.58" stroke="#000000" stroke-width="2" fill="none"></path></g></g><mask></mask><g transform="translate(249.82918149466195 368.91103202846966) rotate(0 43.066548466258155 10.409252669039148)"><text x="0" y="0" font-family="Virgil, Segoe UI Emoji" font-size="16.65480427046263px" fill="#000000" text-anchor="start" style="white-space: pre;" direction="ltr" dominant-baseline="text-before-edge">x reserves</text></g><g transform="translate(10 170.71886120996442) rotate(0 42.29626440407969 10.409252669039148)"><text x="0" y="0" font-family="Virgil, Segoe UI Emoji" font-size="16.654804270462634px" fill="#000000" text-anchor="start" style="white-space: pre;" direction="ltr" dominant-baseline="text-before-edge">y reserves</text></g><g transform="translate(162.0462633451957 285.9857651245551) rotate(0 0.000041637010667727736 0.000041637010667727736)" stroke="none"><path fill="#000000" d="M 3.14,-3.14 Q 3.14,-3.14 3.55,-2.55 3.97,-1.97 4.18,-1.28 4.40,-0.59 4.38,0.11 4.36,0.83 4.11,1.51 3.86,2.18 3.41,2.74 2.96,3.30 2.36,3.69 1.75,4.07 1.05,4.25 0.36,4.42 -0.35,4.36 -1.07,4.30 -1.73,4.02 -2.39,3.74 -2.92,3.26 -3.46,2.78 -3.81,2.15 -4.16,1.53 -4.30,0.82 -4.43,0.11 -4.34,-0.59 -4.24,-1.30 -3.92,-1.94 -3.60,-2.59 -3.09,-3.09 -2.59,-3.60 -1.94,-3.92 -1.30,-4.24 -0.59,-4.34 0.12,-4.43 0.82,-4.30 1.53,-4.16 2.15,-3.81 2.78,-3.46 3.26,-2.92 3.74,-2.39 4.02,-1.73 4.31,-1.07 4.36,-0.35 4.42,0.36 4.25,1.05 4.07,1.75 3.69,2.36 3.30,2.96 2.74,3.41 2.18,3.86 1.51,4.11 0.83,4.36 0.11,4.38 -0.60,4.40 -1.28,4.18 -1.97,3.97 -2.55,3.55 -3.14,3.13 -3.14,3.14 -3.14,3.14 -3.47,2.71 -3.80,2.29 -4.02,1.80 -4.24,1.32 -4.33,0.79 -4.43,0.26 -4.40,-0.26 -4.36,-0.80 -4.20,-1.31 -4.04,-1.82 -3.77,-2.28 -3.49,-2.73 -3.11,-3.11 -2.73,-3.49 -2.28,-3.77 -1.82,-4.05 -1.31,-4.20 -0.80,-4.36 -0.26,-4.40 0.26,-4.43 0.79,-4.33 1.32,-4.24 1.80,-4.02 2.29,-3.80 2.71,-3.47 3.14,-3.14 3.14,-3.14 L 3.14,-3.14 Z"></path></g><g transform="translate(342.43060498220643 360.6014234875445) rotate(0 0.000041637010667727736 0.000041637010667727736)" stroke="none"><path fill="#000000" d="M 3.14,-3.14 Q 3.14,-3.14 3.55,-2.55 3.97,-1.97 4.18,-1.28 4.40,-0.59 4.38,0.11 4.36,0.83 4.11,1.51 3.86,2.18 3.41,2.74 2.96,3.30 2.36,3.69 1.75,4.07 1.05,4.25 0.36,4.42 -0.35,4.36 -1.07,4.30 -1.73,4.02 -2.39,3.74 -2.92,3.26 -3.46,2.78 -3.81,2.15 -4.16,1.53 -4.30,0.82 -4.43,0.11 -4.34,-0.59 -4.24,-1.30 -3.92,-1.94 -3.60,-2.59 -3.09,-3.09 -2.59,-3.60 -1.94,-3.92 -1.30,-4.24 -0.59,-4.34 0.12,-4.43 0.82,-4.30 1.53,-4.16 2.15,-3.81 2.78,-3.46 3.26,-2.92 3.74,-2.39 4.02,-1.73 4.31,-1.07 4.36,-0.35 4.42,0.36 4.25,1.05 4.07,1.75 3.69,2.36 3.30,2.96 2.74,3.41 2.18,3.86 1.51,4.11 0.83,4.36 0.11,4.38 -0.60,4.40 -1.28,4.18 -1.97,3.97 -2.55,3.55 -3.14,3.13 -3.14,3.14 -3.14,3.14 -3.47,2.71 -3.80,2.29 -4.02,1.80 -4.24,1.32 -4.33,0.79 -4.43,0.26 -4.40,-0.26 -4.36,-0.80 -4.20,-1.31 -4.04,-1.82 -3.77,-2.28 -3.49,-2.73 -3.11,-3.11 -2.73,-3.49 -2.28,-3.77 -1.82,-4.05 -1.31,-4.20 -0.80,-4.36 -0.26,-4.40 0.26,-4.43 0.79,-4.33 1.32,-4.24 1.80,-4.02 2.29,-3.80 2.71,-3.47 3.14,-3.14 3.14,-3.14 L 3.14,-3.14 Z"></path></g><g transform="translate(106.41281138790032 140.56939501779357) rotate(0 0.000041637010667727736 0.00004163701068193859)" stroke="none"><path fill="#000000" d="M 3.14,-3.14 Q 3.14,-3.14 3.55,-2.55 3.97,-1.97 4.18,-1.28 4.40,-0.59 4.38,0.11 4.36,0.83 4.11,1.51 3.86,2.18 3.41,2.74 2.96,3.30 2.36,3.69 1.75,4.07 1.05,4.25 0.36,4.42 -0.35,4.36 -1.07,4.30 -1.73,4.02 -2.39,3.74 -2.92,3.26 -3.46,2.78 -3.81,2.15 -4.16,1.53 -4.30,0.82 -4.43,0.11 -4.34,-0.59 -4.24,-1.30 -3.92,-1.94 -3.60,-2.59 -3.09,-3.09 -2.59,-3.60 -1.94,-3.92 -1.30,-4.24 -0.59,-4.34 0.12,-4.43 0.82,-4.30 1.53,-4.16 2.15,-3.81 2.78,-3.46 3.26,-2.92 3.74,-2.39 4.02,-1.73 4.31,-1.07 4.36,-0.35 4.42,0.36 4.25,1.05 4.07,1.75 3.69,2.36 3.30,2.96 2.74,3.41 2.18,3.86 1.51,4.11 0.83,4.36 0.11,4.38 -0.60,4.40 -1.28,4.18 -1.97,3.97 -2.55,3.55 -3.14,3.13 -3.14,3.14 -3.14,3.14 -3.47,2.71 -3.80,2.29 -4.02,1.80 -4.24,1.32 -4.33,0.79 -4.43,0.26 -4.40,-0.26 -4.36,-0.80 -4.20,-1.31 -4.04,-1.82 -3.77,-2.28 -3.49,-2.73 -3.11,-3.11 -2.73,-3.49 -2.28,-3.77 -1.82,-4.05 -1.31,-4.20 -0.80,-4.36 -0.26,-4.40 0.26,-4.43 0.79,-4.33 1.32,-4.24 1.80,-4.02 2.29,-3.80 2.71,-3.47 3.14,-3.14 3.14,-3.14 L 3.14,-3.14 Z"></path></g><g transform="translate(121.4021352313166 131.82562277580067) rotate(0 28.576867480294993 8.32740213523131)"><text x="0" y="0" font-family="Virgil, Segoe UI Emoji" font-size="13.323843416370106px" fill="#000000" text-anchor="start" style="white-space: pre;" direction="ltr" dominant-baseline="text-before-edge">Pb = 1.01</text></g><g transform="translate(174.2736663275341 269.3309608540925) rotate(0 16.980960642315722 8.327402135231324)"><text x="0" y="0" font-family="Virgil, Segoe UI Emoji" font-size="13.323843416370106px" fill="#000000" text-anchor="start" style="white-space: pre;" direction="ltr" dominant-baseline="text-before-edge">P = 1</text></g><g transform="translate(344.6651254022672 331.45551601423483) rotate(0 34.14234875444845 8.327402135231324)"><text x="0" y="0" font-family="Virgil, Segoe UI Emoji" font-size="13.323843416370106px" fill="#000000" text-anchor="start" style="white-space: pre;" direction="ltr" dominant-baseline="text-before-edge">Pa = 0.99</text></g><g stroke-linecap="round"><g transform="translate(106 140.86476868327395) rotate(0 120 110)"><path d="M0 0 C10.67 25.33, 24 115.33, 64 152 C104 188.67, 210.67 208.67, 240 220 M0 0 C10.67 25.33, 24 115.33, 64 152 C104 188.67, 210.67 208.67, 240 220" stroke="#000000" stroke-width="2" fill="none"></path></g></g><mask></mask></svg>