<svg version="1.1" xmlns="http://www.w3.org/2000/svg" viewBox="0 0 510.4386985727282 399.7295373665479" width="510.4386985727282" height="399.7295373665479">
  <!-- svg-source:excalidraw -->
  
  <defs>
    <style class="style-fonts">
      @font-face {
        font-family: "Virgil";
        src: url("https://excalidraw.com/Virgil.woff2");
      }
      @font-face {
        font-family: "Cascadia";
        src: url("https://excalidraw.com/Cascadia.woff2");
      }
    </style>
  </defs>
  <rect x="0" y="0" width="510.4386985727282" height="399.7295373665479" fill="#ffffff"></rect><g stroke-linecap="round"><g transform="translate(145.83776970856854 10.832740213523266) rotate(0 163.10304648958294 157.11140652336672)"><path d="M0 0 C0.88 17.47, 0.81 74.86, 5.28 104.83 C9.76 134.81, 10.35 152.34, 26.85 179.83 C43.35 207.33, 72.41 248.7, 104.27 269.8 C136.13 290.9, 181.03 299.01, 218.02 306.42 C255.01 313.82, 308.17 312.92, 326.21 314.22 M0 0 C0.88 17.47, 0.81 74.86, 5.28 104.83 C9.76 134.81, 10.35 152.34, 26.85 179.83 C43.35 207.33, 72.41 248.7, 104.27 269.8 C136.13 290.9, 181.03 299.01, 218.02 306.42 C255.01 313.82, 308.17 312.92, 326.21 314.22" stroke="#000000" stroke-width="2" fill="none"></path></g></g><mask></mask><g stroke-linecap="round"><g transform="translate(105.76512455516013 10) rotate(0 186.11743772241994 175.29181494661918)"><path d="M0 0 C0.2 82.32, 0.39 164.64, 0.83 350.58 M0 0 C0.2 84.89, 0.4 169.78, 0.83 350.58 M0.83 350.58 C126.97 350.58, 253.1 350.58, 372.23 350.58 M0.83 350.58 C127.95 350.58, 255.06 350.58, 372.23 350.58" stroke="#000000" stroke-width="2" fill="none"></path></g></g><mask></mask><g transform="translate(249.82918149466195 368.91103202846966) rotate(0 43.06654846625821 10.40925266903912)"><text x="0" y="0" font-family="Virgil, Segoe UI Emoji" font-size="16.65480427046263px" fill="#000000" text-anchor="start" style="white-space: pre;" direction="ltr" dominant-baseline="text-before-edge">x reserves</text></g><g transform="translate(10 170.71886120996442) rotate(0 42.296264404079665 10.40925266903912)"><text x="0" y="0" font-family="Virgil, Segoe UI Emoji" font-size="16.654804270462634px" fill="#000000" text-anchor="start" style="white-space: pre;" direction="ltr" dominant-baseline="text-before-edge">y reserves</text></g><g transform="translate(214.33548314116882 250.5758616020853) rotate(347.5793527431295 0.000041637010667727736 0.000041637010667727736)" stroke="none"><path fill="#000000" d="M 3.14,-3.14 Q 3.14,-3.14 3.55,-2.55 3.97,-1.97 4.18,-1.28 4.40,-0.59 4.38,0.11 4.36,0.83 4.11,1.51 3.86,2.18 3.41,2.74 2.96,3.30 2.36,3.69 1.75,4.07 1.05,4.25 0.36,4.42 -0.35,4.36 -1.07,4.30 -1.73,4.02 -2.39,3.74 -2.92,3.26 -3.46,2.78 -3.81,2.15 -4.16,1.53 -4.30,0.82 -4.43,0.11 -4.34,-0.59 -4.24,-1.30 -3.92,-1.94 -3.60,-2.59 -3.09,-3.09 -2.59,-3.60 -1.94,-3.92 -1.30,-4.24 -0.59,-4.34 0.12,-4.43 0.82,-4.30 1.53,-4.16 2.15,-3.81 2.78,-3.46 3.26,-2.92 3.74,-2.39 4.02,-1.73 4.31,-1.07 4.36,-0.35 4.42,0.36 4.25,1.05 4.07,1.75 3.69,2.36 3.30,2.96 2.74,3.41 2.18,3.86 1.51,4.11 0.83,4.36 0.11,4.38 -0.60,4.40 -1.28,4.18 -1.97,3.97 -2.55,3.55 -3.14,3.13 -3.14,3.14 -3.14,3.14 -3.47,2.71 -3.80,2.29 -4.02,1.80 -4.24,1.32 -4.33,0.79 -4.43,0.26 -4.40,-0.26 -4.36,-0.80 -4.20,-1.31 -4.04,-1.82 -3.77,-2.28 -3.49,-2.73 -3.11,-3.11 -2.73,-3.49 -2.28,-3.77 -1.82,-4.05 -1.31,-4.20 -0.80,-4.36 -0.26,-4.40 0.26,-4.43 0.79,-4.33 1.32,-4.24 1.80,-4.02 2.29,-3.80 2.71,-3.47 3.14,-3.14 3.14,-3.14 L 3.14,-3.14 Z"></path></g><g transform="translate(403.53963182311884 322.8973043609943) rotate(0 0.000041637010667727736 0.000041637010667727736)" stroke="none"><path fill="#000000" d="M 3.14,-3.14 Q 3.14,-3.14 3.55,-2.55 3.97,-1.97 4.18,-1.28 4.40,-0.59 4.38,0.11 4.36,0.83 4.11,1.51 3.86,2.18 3.41,2.74 2.96,3.30 2.36,3.69 1.75,4.07 1.05,4.25 0.36,4.42 -0.35,4.36 -1.07,4.30 -1.73,4.02 -2.39,3.74 -2.92,3.26 -3.46,2.78 -3.81,2.15 -4.16,1.53 -4.30,0.82 -4.43,0.11 -4.34,-0.59 -4.24,-1.30 -3.92,-1.94 -3.60,-2.59 -3.09,-3.09 -2.59,-3.60 -1.94,-3.92 -1.30,-4.24 -0.59,-4.34 0.12,-4.43 0.82,-4.30 1.53,-4.16 2.15,-3.81 2.78,-3.46 3.26,-2.92 3.74,-2.39 4.02,-1.73 4.31,-1.07 4.36,-0.35 4.42,0.36 4.25,1.05 4.07,1.75 3.69,2.36 3.30,2.96 2.74,3.41 2.18,3.86 1.51,4.11 0.83,4.36 0.11,4.38 -0.60,4.40 -1.28,4.18 -1.97,3.97 -2.55,3.55 -3.14,3.13 -3.14,3.14 -3.14,3.14 -3.47,2.71 -3.80,2.29 -4.02,1.80 -4.24,1.32 -4.33,0.79 -4.43,0.26 -4.40,-0.26 -4.36,-0.80 -4.20,-1.31 -4.04,-1.82 -3.77,-2.28 -3.49,-2.73 -3.11,-3.11 -2.73,-3.49 -2.28,-3.77 -1.82,-4.05 -1.31,-4.20 -0.80,-4.36 -0.26,-4.40 0.26,-4.43 0.79,-4.33 1.32,-4.24 1.80,-4.02 2.29,-3.80 2.71,-3.47 3.14,-3.14 3.14,-3.14 L 3.14,-3.14 Z"></path></g><g transform="translate(148.64585249404797 85.16615257280068) rotate(0 0.000041637010667727736 0.000041637010667727736)" stroke="none"><path fill="#000000" d="M 3.14,-3.14 Q 3.14,-3.14 3.55,-2.55 3.97,-1.97 4.18,-1.28 4.40,-0.59 4.38,0.11 4.36,0.83 4.11,1.51 3.86,2.18 3.41,2.74 2.96,3.30 2.36,3.69 1.75,4.07 1.05,4.25 0.36,4.42 -0.35,4.36 -1.07,4.30 -1.73,4.02 -2.39,3.74 -2.92,3.26 -3.46,2.78 -3.81,2.15 -4.16,1.53 -4.30,0.82 -4.43,0.11 -4.34,-0.59 -4.24,-1.30 -3.92,-1.94 -3.60,-2.59 -3.09,-3.09 -2.59,-3.60 -1.94,-3.92 -1.30,-4.24 -0.59,-4.34 0.12,-4.43 0.82,-4.30 1.53,-4.16 2.15,-3.81 2.78,-3.46 3.26,-2.92 3.74,-2.39 4.02,-1.73 4.31,-1.07 4.36,-0.35 4.42,0.36 4.25,1.05 4.07,1.75 3.69,2.36 3.30,2.96 2.74,3.41 2.18,3.86 1.51,4.11 0.83,4.36 0.11,4.38 -0.60,4.40 -1.28,4.18 -1.97,3.97 -2.55,3.55 -3.14,3.13 -3.14,3.14 -3.14,3.14 -3.47,2.71 -3.80,2.29 -4.02,1.80 -4.24,1.32 -4.33,0.79 -4.43,0.26 -4.40,-0.26 -4.36,-0.80 -4.20,-1.31 -4.04,-1.82 -3.77,-2.28 -3.49,-2.73 -3.11,-3.11 -2.73,-3.49 -2.28,-3.77 -1.82,-4.05 -1.31,-4.20 -0.80,-4.36 -0.26,-4.40 0.26,-4.43 0.79,-4.33 1.32,-4.24 1.80,-4.02 2.29,-3.80 2.71,-3.47 3.14,-3.14 3.14,-3.14 L 3.14,-3.14 Z"></path></g><g transform="translate(156.57733237826983 93.3612058328747) rotate(0 7.7833333015441895 8.327402135231296)"><text x="0" y="0" font-family="Virgil, Segoe UI Emoji" font-size="13.323843416370106px" fill="#000000" text-anchor="start" style="white-space: pre;" direction="ltr" dominant-baseline="text-before-edge">Pb</text></g><g transform="translate(220.91661095615177 228.27478216426687) rotate(0 4.400000095367432 8.327402135231296)"><text x="0" y="0" font-family="Virgil, Segoe UI Emoji" font-size="13.323843416370106px" fill="#000000" text-anchor="start" style="white-space: pre;" direction="ltr" dominant-baseline="text-before-edge">P</text></g><g transform="translate(377.54277640640123 297.28031886728206) rotate(0 8.841666221618652 8.327402135231296)"><text x="0" y="0" font-family="Virgil, Segoe UI Emoji" font-size="13.323843416370106px" fill="#000000" text-anchor="start" style="white-space: pre;" direction="ltr" dominant-baseline="text-before-edge">Pa</text></g><g stroke-linecap="round"><g transform="translate(214.59155518635396 359.5520811719392) rotate(0 -1.4115687918389312 -137.62795720429443)"><path d="M0 0 C-0.47 -45.88, -2.35 -229.38, -2.82 -275.26" stroke="#000000" stroke-width="1.5" fill="none" stroke-dasharray="1.5 7"></path></g></g><mask></mask><g stroke-linecap="round"><g transform="translate(105.90075821475727 249.44971540850372) rotate(0 148.92050753900594 0.35289219795964755)"><path d="M0 0 C49.64 0.12, 248.2 0.59, 297.84 0.71" stroke="#000000" stroke-width="1.5" fill="none" stroke-dasharray="1.5 7"></path></g></g><mask></mask><g stroke-linecap="round"><g transform="translate(105.19497381883787 85.00195115926977) rotate(0 53.99250628783858 -0.3528921979597044)"><path d="M0 0 C18 -0.12, 89.99 -0.59, 107.99 -0.71" stroke="#000000" stroke-width="1.5" fill="none" stroke-dasharray="1.5 7"></path></g></g><mask></mask><g stroke-linecap="round"><g transform="translate(403.0359888968494 359.5520811719392) rotate(0 0.7057843959195225 -53.99250628783858)"><path d="M0 0 C0.24 -18, 1.18 -89.99, 1.41 -107.99" stroke="#000000" stroke-width="1.5" fill="none" stroke-dasharray="1.5 7"></path></g></g><mask></mask><g transform="translate(122.13379932090481 57.47635971841078) rotate(0 6.625 10)"><text x="0" y="0" font-family="Virgil, Segoe UI Emoji" font-size="16px" fill="#000000" text-anchor="start" style="white-space: pre;" direction="ltr" dominant-baseline="text-before-edge">x'</text></g><g transform="translate(415.03432362748026 329.909136543322) rotate(0 5.875 10)"><text x="0" y="0" font-family="Virgil, Segoe UI Emoji" font-size="16px" fill="#000000" text-anchor="start" style="white-space: pre;" direction="ltr" dominant-baseline="text-before-edge">y'</text></g><g transform="translate(223.06096793738743 298.85462312286575) rotate(0 3.75 10)"><text x="0" y="0" font-family="Virgil, Segoe UI Emoji" font-size="16px" fill="#000000" text-anchor="start" style="white-space: pre;" direction="ltr" dominant-baseline="text-before-edge">y</text></g><g transform="translate(145.424684386247 223.33569275948366) rotate(0 4.5 10)"><text x="0" y="0" font-family="Virgil, Segoe UI Emoji" font-size="16px" fill="#000000" text-anchor="start" style="white-space: pre;" direction="ltr" dominant-baseline="text-before-edge">x</text></g><g stroke-linecap="round"><g transform="translate(156.01532947600117 77.2383228041557) rotate(0 28.227496685816163 -6.115505047647957)"><path d="M0 0 C0 -3.4, 0 -6.8, 0 -13.41 M0 0 C0 -3.68, 0 -7.35, 0 -13.41 M0 -13.41 C10.45 -13.49, 20.89 -13.58, 28.96 -13.64 M0 -13.41 C7.55 -13.47, 15.11 -13.53, 28.96 -13.64 M28.96 -13.64 C34.49 -13.6, 40.01 -13.55, 56.46 -13.41 M28.96 -13.64 C37.14 -13.57, 45.31 -13.5, 56.46 -13.41 M56.46 -13.41 C56.46 -8.35, 56.46 -3.29, 56.46 1.41 M56.46 -13.41 C56.46 -10.35, 56.46 -7.28, 56.46 1.41" stroke="#000000" stroke-width="1" fill="none"></path></g></g><mask></mask><g stroke-linecap="round"><g transform="translate(183.56429661154954 63.86475499820165) rotate(0 0 -4.849367570358652)"><path d="M0 0 C0 -2.55, 0 -5.11, 0 -9.7 M0 0 C0 -2.26, 0 -4.52, 0 -9.7" stroke="#000000" stroke-width="1" fill="none"></path></g></g><mask></mask><g transform="translate(164.1879041081425 31.16659530599793) rotate(0 23.75 10)"><text x="0" y="0" font-family="Virgil, Segoe UI Emoji" font-size="16px" fill="#000000" text-anchor="start" style="white-space: pre;" direction="ltr" dominant-baseline="text-before-edge">x real</text></g><g stroke-linecap="round"><g transform="translate(392.63600563802083 290.17568325542254) rotate(90 33.52043387235699 -6.48034347318287)"><path d="M0 0 C0 -3.61, 0 -7.21, 0 -13.41 M0 0 C0 -3.12, 0 -6.25, 0 -13.41 M0 -13.41 C9.65 -13.49, 19.3 -13.56, 28.96 -13.64 M0 -13.41 C8.43 -13.48, 16.86 -13.55, 28.96 -13.64 M28.96 -13.64 C38.78 -13.64, 48.6 -13.65, 67.04 -13.65 M28.96 -13.64 C42.31 -13.65, 55.67 -13.65, 67.04 -13.65 M67.04 -13.65 C66.97 -8.99, 66.89 -4.32, 66.8 0.69 M67.04 -13.65 C66.97 -9.35, 66.9 -5.06, 66.8 0.69" stroke="#000000" stroke-width="1" fill="none"></path></g></g><mask></mask><g stroke-linecap="round"><g transform="translate(433.7481259344328 285.3366870262039) rotate(0 6.134995375308506 -0.1202940269668602)"><path d="M0 0 C3.57 -0.07, 7.14 -0.14, 12.27 -0.24 M0 0 C4.62 -0.09, 9.25 -0.18, 12.27 -0.24" stroke="#000000" stroke-width="1" fill="none"></path></g></g><mask></mask><g transform="translate(454.4386985727282 273.3072843295206) rotate(0 23 10)"><text x="0" y="0" font-family="Virgil, Segoe UI Emoji" font-size="16px" fill="#000000" text-anchor="start" style="white-space: pre;" direction="ltr" dominant-baseline="text-before-edge">y real</text></g></svg>